<svg xmlns="http://www.w3.org/2000/svg" viewBox="0 0 100 100">
  <defs>
    <linearGradient id="grad" x1="0%" y1="0%" x2="100%" y2="100%">
      <stop offset="0%" style="stop-color:#4F46E5;stop-opacity:1" />
      <stop offset="100%" style="stop-color:#7C3AED;stop-opacity:1" />
    </linearGradient>
  </defs>
  <rect width="100" height="100" rx="20" fill="url(#grad)"/>
  <g transform="translate(20, 25)">
    <!-- Livre ouvert -->
    <path d="M 10 20 L 10 50 L 30 50 L 30 20 Z" fill="white" opacity="0.9"/>
    <path d="M 30 20 L 30 50 L 50 50 L 50 20 Z" fill="white" opacity="0.9"/>
    <!-- Pages du livre -->
    <line x1="30" y1="20" x2="30" y2="50" stroke="#4F46E5" stroke-width="2"/>
    <!-- Lignes de texte -->
    <line x1="15" y1="30" x2="25" y2="30" stroke="#4F46E5" stroke-width="1.5" opacity="0.6"/>
    <line x1="15" y1="35" x2="25" y2="35" stroke="#4F46E5" stroke-width="1.5" opacity="0.6"/>
    <line x1="15" y1="40" x2="25" y2="40" stroke="#4F46E5" stroke-width="1.5" opacity="0.6"/>
    <line x1="35" y1="30" x2="45" y2="30" stroke="#4F46E5" stroke-width="1.5" opacity="0.6"/>
    <line x1="35" y1="35" x2="45" y2="35" stroke="#4F46E5" stroke-width="1.5" opacity="0.6"/>
    <line x1="35" y1="40" x2="45" y2="40" stroke="#4F46E5" stroke-width="1.5" opacity="0.6"/>
    <!-- Étoile (IA) -->
    <path d="M 20 10 L 22 15 L 27 15 L 23 18 L 25 23 L 20 20 L 15 23 L 17 18 L 13 15 L 18 15 Z" fill="#FBBF24" opacity="0.9"/>
  </g>
</svg>


